<svg width="91" height="90" viewBox="0 0 91 90" fill="none" xmlns="http://www.w3.org/2000/svg">
<path d="M26.75 26.25C26.75 24.2609 27.5402 22.3532 28.9467 20.9467C30.3532 19.5402 32.2609 18.75 34.25 18.75H56.75C58.7391 18.75 60.6468 19.5402 62.0533 20.9467C63.4598 22.3532 64.25 24.2609 64.25 26.25V30C64.25 31.9891 63.4598 33.8968 62.0533 35.3033C60.6468 36.7098 58.7391 37.5 56.75 37.5H34.25C32.2609 37.5 30.3532 36.7098 28.9467 35.3033C27.5402 33.8968 26.75 31.9891 26.75 30V26.25ZM34.25 24.375C33.7527 24.375 33.2758 24.5725 32.9242 24.9242C32.5725 25.2758 32.375 25.7527 32.375 26.25V30C32.375 30.4973 32.5725 30.9742 32.9242 31.3258C33.2758 31.6775 33.7527 31.875 34.25 31.875H56.75C57.2473 31.875 57.7242 31.6775 58.0758 31.3258C58.4275 30.9742 58.625 30.4973 58.625 30V26.25C58.625 25.7527 58.4275 25.2758 58.0758 24.9242C57.7242 24.5725 57.2473 24.375 56.75 24.375H34.25ZM31.4375 54.375C32.6807 54.375 33.873 53.8811 34.7521 53.0021C35.6311 52.123 36.125 50.9307 36.125 49.6875C36.125 48.4443 35.6311 47.252 34.7521 46.3729C33.873 45.4939 32.6807 45 31.4375 45C30.1943 45 29.002 45.4939 28.1229 46.3729C27.2439 47.252 26.75 48.4443 26.75 49.6875C26.75 50.9307 27.2439 52.123 28.1229 53.0021C29.002 53.8811 30.1943 54.375 31.4375 54.375ZM36.125 64.6875C36.125 65.9307 35.6311 67.123 34.7521 68.0021C33.873 68.8811 32.6807 69.375 31.4375 69.375C30.1943 69.375 29.002 68.8811 28.1229 68.0021C27.2439 67.123 26.75 65.9307 26.75 64.6875C26.75 63.4443 27.2439 62.252 28.1229 61.3729C29.002 60.4939 30.1943 60 31.4375 60C32.6807 60 33.873 60.4939 34.7521 61.3729C35.6311 62.252 36.125 63.4443 36.125 64.6875ZM27.6875 82.5H45.8787C44.1747 80.8313 42.705 78.939 41.51 76.875H27.6875C25.947 76.875 24.2778 76.1836 23.0471 74.9529C21.8164 73.7222 21.125 72.053 21.125 70.3125V19.6875C21.125 16.065 24.065 13.125 27.6875 13.125H63.3125C66.935 13.125 69.875 16.065 69.875 19.6875V38.1037C71.525 38.4675 73.115 38.9812 74.63 39.6337C74.8799 39.2363 75.1716 38.8667 75.5 38.5312V19.6875C75.5 16.4552 74.216 13.3552 71.9304 11.0696C69.6448 8.78404 66.5448 7.5 63.3125 7.5H27.6875C24.4552 7.5 21.3552 8.78404 19.0696 11.0696C16.784 13.3552 15.5 16.4552 15.5 19.6875V70.3125C15.5 71.913 15.8152 73.4978 16.4277 74.9764C17.0402 76.4551 17.9379 77.7986 19.0696 78.9304C20.2013 80.0621 21.5449 80.9598 23.0235 81.5723C24.5022 82.1848 26.087 82.5 27.6875 82.5ZM80.1875 56.25C80.9334 56.25 81.6488 55.9537 82.1762 55.4262C82.7037 54.8988 83 54.1834 83 53.4375V43.125C83 42.3791 82.7037 41.6637 82.1762 41.1363C81.6488 40.6088 80.9334 40.3125 80.1875 40.3125C79.4416 40.3125 78.7262 40.6088 78.1988 41.1363C77.6713 41.6637 77.375 42.3791 77.375 43.125V45.4725C73.2744 42.5275 68.3025 41.0472 63.2589 41.2696C58.2153 41.492 53.393 43.4041 49.5675 46.6986C45.742 49.993 43.1357 54.4783 42.1676 59.4331C41.1994 64.388 41.9259 69.5244 44.23 74.0165C46.5341 78.5086 50.282 82.0953 54.871 84.1997C59.46 86.3042 64.6234 86.8042 69.5309 85.6192C74.4384 84.4343 78.8048 81.6333 81.928 77.6668C85.0511 73.7002 86.7495 68.7985 86.75 63.75C86.75 63.0041 86.4537 62.2887 85.9262 61.7613C85.3988 61.2338 84.6834 60.9375 83.9375 60.9375C83.1916 60.9375 82.4762 61.2338 81.9488 61.7613C81.4213 62.2887 81.125 63.0041 81.125 63.75C81.1252 67.5742 79.8264 71.2851 77.4415 74.2746C75.0566 77.2641 71.727 79.3548 67.9983 80.2042C64.2696 81.0537 60.3629 80.6114 56.9184 78.9499C53.474 77.2884 50.696 74.5063 49.0398 71.0593C47.3835 67.6124 46.9472 63.705 47.8022 59.9776C48.6573 56.2502 50.7531 52.9238 53.7462 50.5434C56.7393 48.163 60.4521 46.8698 64.2763 46.8758C68.1006 46.8818 71.8094 48.1865 74.795 50.5762L74.825 50.5987C74.8373 50.6077 74.8498 50.6165 74.8625 50.625H69.875C69.1291 50.625 68.4137 50.9213 67.8863 51.4488C67.3588 51.9762 67.0625 52.6916 67.0625 53.4375C67.0625 54.1834 67.3588 54.8988 67.8863 55.4262C68.4137 55.9537 69.1291 56.25 69.875 56.25H80.1875Z" fill="black"/>
</svg>
