<svg width="90" height="90" viewBox="0 0 90 90" fill="none" xmlns="http://www.w3.org/2000/svg">
<g clip-path="url(#clip0_128_250)">
<path d="M88.4625 13.0313C87.5075 10.405 85.9885 8.01992 84.0124 6.04387C82.0364 4.06783 79.6513 2.54884 77.025 1.5938C72.1125 0.0187989 67.65 0.0187988 58.575 0.0187988H31.35C22.35 0.0187988 17.8125 0.0187988 12.975 1.5188C10.3449 2.47782 7.95741 4.00255 5.98111 5.98533C4.00481 7.9681 2.48791 10.3606 1.5375 12.9938C0 17.8688 0 22.3688 0 31.3688V58.6313C0 67.6688 0 72.1313 1.5 77.0063C2.45504 79.6326 3.97403 82.0177 5.95008 83.9937C7.92612 85.9698 10.3112 87.4888 12.9375 88.4438C17.8125 89.9813 22.3125 89.9813 31.3125 89.9813H58.6125C67.65 89.9813 72.15 89.9813 76.9875 88.4813C79.6245 87.5269 82.0194 86.0043 84.0024 84.0212C85.9855 82.0382 87.5081 79.6433 88.4625 77.0063C90 72.1313 90 67.6313 90 58.6313V31.4438C90 22.4063 90 17.9063 88.4625 13.0313ZM65.325 30.3938L61.8375 33.8813C61.4976 34.1974 61.0526 34.3763 60.5885 34.3832C60.1243 34.3901 59.6742 34.2246 59.325 33.9188C55.9475 31.0664 51.6708 29.4992 47.25 29.4938C43.6125 29.4938 39.975 30.6938 39.975 34.0313C39.975 37.4063 43.875 38.5313 48.375 40.2188C56.25 42.8438 62.775 46.1438 62.775 53.8688C62.775 62.2688 56.25 68.0438 45.6 68.6813L44.625 73.1813C44.5388 73.5948 44.3127 73.966 43.9849 74.2324C43.657 74.4988 43.2474 74.6441 42.825 74.6438H36.1125L35.775 74.6063C35.2945 74.4985 34.8758 74.206 34.6091 73.7921C34.3425 73.3781 34.2494 72.8758 34.35 72.3938L35.4 67.6313C31.3583 66.6181 27.6414 64.5919 24.6 61.7438V61.7063C24.4322 61.5391 24.299 61.3404 24.2082 61.1216C24.1173 60.9028 24.0706 60.6682 24.0706 60.4313C24.0706 60.1944 24.1173 59.9598 24.2082 59.741C24.299 59.5222 24.4322 59.3235 24.6 59.1563L28.35 55.5188C28.6905 55.1998 29.1396 55.0223 29.6063 55.0223C30.0729 55.0223 30.522 55.1998 30.8625 55.5188C34.275 58.7438 38.85 60.5438 43.575 60.4688C48.45 60.4688 51.7125 58.4063 51.7125 55.1438C51.7125 51.8813 48.4125 51.0188 42.1875 48.6938C35.5875 46.3313 29.325 42.9938 29.325 35.1938C29.325 26.1188 36.8625 21.6938 45.7875 21.2813L46.725 16.6688C46.8122 16.2589 47.0397 15.8922 47.3683 15.6321C47.6969 15.3719 48.106 15.2346 48.525 15.2438H55.2L55.575 15.2813C56.55 15.5063 57.1875 16.4438 56.9625 17.4188L55.95 22.5563C59.325 23.6813 62.5125 25.4438 65.25 27.7688L65.325 27.8438C66.0375 28.5938 66.0375 29.7188 65.325 30.3938Z" fill="black"/>
</g>
<defs>
<clipPath id="clip0_128_250">
<rect width="90" height="90" fill="white"/>
</clipPath>
</defs>
</svg>
