<svg width="306" height="81" viewBox="0 0 306 81" fill="none" xmlns="http://www.w3.org/2000/svg">
<path d="M36.5049 10.1492C42.9395 12.6583 48.8621 17.1617 53.362 21.2391C54.406 20.0939 55.8327 18.5862 57.562 16.8838C52.6327 12.3621 45.9568 7.25223 38.5209 4.35528C27.1263 -0.0832406 17.7917 -0.378012 11.6665 0.263718C10.0665 2.49497 8.60918 4.84469 7.29053 7.29172C11.1012 6.30445 21.9197 4.46388 36.5049 10.1492Z" fill="#00AFB9"/>
<path d="M91.3096 45.6493C88.3976 44.5154 85.515 42.8638 82.7857 41.0049C81.043 42.2771 79.3791 43.6198 77.8511 44.9498C81.4004 47.5322 85.291 49.8847 89.2883 51.4432C97.3642 54.5884 104.889 55.4882 110.845 55.4882C113.973 55.4882 116.66 55.24 118.775 54.9396C119.285 52.8268 119.692 50.6703 119.999 48.4772C115.339 49.3431 103.987 50.5942 91.3096 45.6493Z" fill="#00AFB9"/>
<path d="M38.5222 73.6522C53.634 67.7624 65.6405 52.7247 66.0952 52.1493C66.2165 52.0012 78.5524 37.3274 91.3096 32.3544C103.989 27.4123 115.343 28.6634 120 29.5279C119.693 27.3376 119.287 25.1825 118.776 23.0697C112.643 22.2037 101.617 21.7566 89.2896 26.5619C75.1644 32.0652 62.2606 47.4118 61.6699 48.1226C61.5553 48.2693 50.1314 62.5467 36.5049 67.8569C21.917 73.545 11.0891 71.6974 7.28918 70.7129C8.60784 73.1585 10.0652 75.5083 11.6651 77.7395C13.1505 77.8961 14.8078 78.0047 16.6544 78.0047C22.4264 78.0047 29.8849 77.016 38.5222 73.6522Z" fill="#00AFB9"/>
<path d="M34.5995 62.3884C49.71 56.5028 61.7192 41.4652 62.1725 40.8883C62.2952 40.7416 74.6284 26.0622 87.3856 21.0962C101.643 15.5378 114.237 17.8086 117.5 18.5589C116.768 16.2543 115.919 14.0047 114.953 11.8229C108.844 10.9456 97.7628 10.4703 85.3682 15.3023C71.2417 20.8043 58.3392 36.1522 57.7459 36.8616C57.6312 37.0097 46.246 51.2688 32.5808 56.5959C16.5423 62.8482 5.04112 59.9978 2.43848 59.1953C3.18114 61.5647 4.04646 63.8721 5.03445 66.1118C7.07709 66.4588 9.6544 66.7423 12.7317 66.7423C18.5036 66.7437 25.9636 65.7578 34.5995 62.3884Z" fill="#00AFB9"/>
<path d="M30.677 51.1311C45.7875 45.2384 57.7967 30.2008 58.25 29.6253C58.3727 29.4787 70.7046 14.8049 83.4604 9.83184C96.5883 4.71775 108.299 6.23956 112.621 7.09708C111.327 4.71351 109.897 2.42303 108.335 0.243969C101.942 -0.345577 92.1817 -0.14389 81.4445 4.03934C67.3166 9.54694 54.4141 24.8949 53.8221 25.6057C53.7074 25.7496 42.2849 40.0256 28.657 45.3386C14.7238 50.77 4.22662 49.3286 0 48.3314C0.30533 50.5514 0.713326 52.7375 1.22799 54.8785C3.25063 55.217 5.79327 55.4878 8.80791 55.4878C14.5798 55.485 22.0384 54.4963 30.677 51.1311Z" fill="#00AFB9"/>
<path d="M32.5809 21.4102C37.4329 23.3001 41.9875 26.3268 45.8701 29.4537C47.6795 27.6766 49.1034 26.1294 50.0608 25.0391C45.6675 21.437 40.3622 17.8616 34.5996 15.6149C21.3451 10.45 10.9039 10.8914 5.03458 11.897C4.04659 14.1339 3.1826 16.4428 2.43994 18.8122C5.06791 18.0012 16.5638 15.1635 32.5809 21.4102Z" fill="#00AFB9"/>
<path d="M87.3857 56.9097C82.6404 55.0635 77.9511 51.8633 73.9272 48.5742C72.1218 50.3372 70.6619 51.8858 69.7139 52.9338C74.2632 56.7207 79.7084 60.5019 85.367 62.7092C93.4403 65.8544 100.968 66.75 106.921 66.75C110.099 66.75 112.825 66.4933 114.952 66.1915C115.919 64.0068 116.767 61.7558 117.499 59.4484C114.237 60.1959 101.64 62.4723 87.3857 56.9097Z" fill="#00AFB9"/>
<path d="M28.6575 32.6743C31.5361 33.7956 34.3001 35.3217 36.8947 37.0296C38.6867 35.7603 40.3667 34.4176 41.9094 33.0848C38.4867 30.6673 34.6961 28.4432 30.6761 26.8762C17.5123 21.7466 7.12041 22.15 1.22847 23.1415C0.713814 25.2796 0.305818 27.4601 0.000488281 29.6787C4.23377 28.6759 14.7243 27.2387 28.6575 32.6743Z" fill="#00AFB9"/>
<path d="M83.462 68.174C77.2274 65.7467 71.0914 60.9838 66.4315 56.7441C65.3995 57.9148 63.9902 59.4324 62.2769 61.1291C67.3675 65.7989 74.2421 71.1612 81.4473 73.9707C89.5179 77.1117 97.0405 78.0115 102.996 78.0115C104.972 78.0087 106.748 77.9043 108.343 77.7576C109.903 75.5814 111.33 73.2951 112.622 70.9144C108.307 71.7846 96.6538 73.3163 83.462 68.174Z" fill="#00AFB9"/>
<path d="M137.569 31.9243L143.941 5.00781H147.5L148.313 9.49023L141.524 37H137.701L137.569 31.9243ZM134.295 5.00781L139.568 31.9243L139.129 37H134.866L127.769 5.00781H134.295ZM153.917 31.8145L159.124 5.00781H165.65L158.575 37H154.312L153.917 31.8145ZM149.5 5.00781L155.916 32.0342L155.74 37H151.917L145.083 9.46826L145.962 5.00781H149.5ZM181.272 10.479L172.571 37H165.562L177.449 5.00781H181.91L181.272 10.479ZM188.501 37L179.778 10.479L179.075 5.00781H183.58L195.533 37H188.501ZM188.106 25.0908V30.2544H171.209V25.0908H188.106ZM208.233 30.3203L215.77 5.00781H223.108L211.968 37H207.134L208.233 30.3203ZM201.29 5.00781L208.804 30.3203L209.947 37H205.069L193.995 5.00781H201.29ZM247.564 31.8584V37H230.535V31.8584H247.564ZM232.688 5.00781V37H226.097V5.00781H232.688ZM245.345 18.0376V23.0474H230.535V18.0376H245.345ZM247.542 5.00781V10.1714H230.535V5.00781H247.542ZM142.381 65.9595H134.163L134.119 61.4331H141.019C142.234 61.4331 143.23 61.2793 144.007 60.9717C144.783 60.6494 145.362 60.188 145.743 59.5874C146.138 58.9722 146.336 58.2251 146.336 57.3462C146.336 56.3501 146.146 55.5444 145.765 54.9292C145.398 54.314 144.82 53.8672 144.029 53.5889C143.252 53.3105 142.249 53.1714 141.019 53.1714H136.448V80H129.856V48.0078H141.019C142.879 48.0078 144.542 48.1836 146.006 48.5352C147.486 48.8867 148.738 49.4214 149.764 50.1392C150.789 50.8569 151.573 51.7651 152.115 52.8638C152.657 53.9478 152.928 55.2368 152.928 56.731C152.928 58.0493 152.627 59.2651 152.027 60.3784C151.441 61.4917 150.511 62.3999 149.236 63.103C147.977 63.8062 146.329 64.1943 144.292 64.2676L142.381 65.9595ZM142.095 80H132.361L134.932 74.8584H142.095C143.252 74.8584 144.197 74.6753 144.93 74.3091C145.662 73.9282 146.204 73.4155 146.556 72.771C146.907 72.1265 147.083 71.3867 147.083 70.5518C147.083 69.6143 146.922 68.8013 146.6 68.1128C146.292 67.4243 145.794 66.897 145.105 66.5308C144.417 66.1499 143.509 65.9595 142.381 65.9595H136.031L136.075 61.4331H143.985L145.501 63.2129C147.449 63.1836 149.017 63.5278 150.203 64.2456C151.404 64.9487 152.276 65.8643 152.818 66.9922C153.375 68.1201 153.653 69.3286 153.653 70.6177C153.653 72.6685 153.206 74.397 152.312 75.8032C151.419 77.1948 150.108 78.2422 148.379 78.9453C146.666 79.6484 144.571 80 142.095 80ZM176.263 48.0078H182.833V69.1455C182.833 71.6064 182.305 73.6792 181.25 75.3638C180.21 77.0483 178.768 78.3154 176.922 79.165C175.091 80.0146 172.981 80.4395 170.594 80.4395C168.206 80.4395 166.082 80.0146 164.222 79.165C162.376 78.3154 160.926 77.0483 159.871 75.3638C158.831 73.6792 158.311 71.6064 158.311 69.1455V48.0078H164.903V69.1455C164.903 70.5811 165.13 71.7529 165.584 72.6611C166.038 73.5693 166.69 74.2358 167.54 74.6606C168.404 75.0854 169.422 75.2979 170.594 75.2979C171.795 75.2979 172.813 75.0854 173.648 74.6606C174.498 74.2358 175.142 73.5693 175.582 72.6611C176.036 71.7529 176.263 70.5811 176.263 69.1455V48.0078ZM198.082 80H191.116L191.16 74.8584H198.082C199.81 74.8584 201.268 74.4702 202.454 73.6938C203.641 72.9028 204.534 71.7529 205.135 70.2441C205.75 68.7354 206.058 66.9116 206.058 64.7729V63.2129C206.058 61.5723 205.882 60.1294 205.53 58.8843C205.193 57.6392 204.688 56.5918 204.014 55.7422C203.34 54.8926 202.513 54.2554 201.531 53.8306C200.55 53.3911 199.422 53.1714 198.147 53.1714H190.984V48.0078H198.147C200.286 48.0078 202.242 48.374 204.014 49.1064C205.801 49.8242 207.347 50.8569 208.65 52.2046C209.954 53.5522 210.958 55.1636 211.661 57.0386C212.378 58.8989 212.737 60.9717 212.737 63.2568V64.7729C212.737 67.0435 212.378 69.1162 211.661 70.9912C210.958 72.8662 209.954 74.4775 208.65 75.8252C207.361 77.1582 205.816 78.1909 204.014 78.9233C202.227 79.6411 200.25 80 198.082 80ZM194.852 48.0078V80H188.26V48.0078H194.852ZM242.884 63.2788V75.957C242.386 76.5576 241.617 77.2095 240.577 77.9126C239.537 78.6011 238.196 79.1943 236.556 79.6924C234.915 80.1904 232.93 80.4395 230.601 80.4395C228.536 80.4395 226.653 80.1025 224.954 79.4287C223.255 78.7402 221.79 77.7368 220.56 76.4185C219.344 75.1001 218.406 73.4888 217.747 71.5845C217.088 69.6655 216.758 67.4756 216.758 65.0146V63.0151C216.758 60.5542 217.073 58.3643 217.703 56.4453C218.348 54.5264 219.263 52.9077 220.45 51.5894C221.636 50.271 223.05 49.2676 224.69 48.5791C226.331 47.8906 228.155 47.5464 230.162 47.5464C232.945 47.5464 235.23 48.0005 237.017 48.9087C238.804 49.8022 240.167 51.0474 241.104 52.644C242.056 54.2261 242.642 56.0425 242.862 58.0933H236.468C236.307 57.0093 235.999 56.0645 235.545 55.2588C235.091 54.4531 234.439 53.8232 233.589 53.3691C232.754 52.915 231.67 52.688 230.337 52.688C229.239 52.688 228.257 52.915 227.393 53.3691C226.543 53.8086 225.826 54.4604 225.24 55.3247C224.654 56.189 224.207 57.2583 223.899 58.5327C223.592 59.8071 223.438 61.2866 223.438 62.9712V65.0146C223.438 66.6846 223.599 68.1641 223.921 69.4531C224.244 70.7275 224.72 71.8042 225.35 72.6831C225.994 73.5474 226.785 74.1992 227.723 74.6387C228.66 75.0781 229.751 75.2979 230.997 75.2979C232.037 75.2979 232.901 75.21 233.589 75.0342C234.292 74.8584 234.856 74.646 235.281 74.397C235.721 74.1333 236.058 73.8843 236.292 73.6499V67.981H230.271V63.2788H242.884ZM269.668 74.8584V80H252.64V74.8584H269.668ZM254.793 48.0078V80H248.201V48.0078H254.793ZM267.449 61.0376V66.0474H252.64V61.0376H267.449ZM269.646 48.0078V53.1714H252.64V48.0078H269.646ZM288.257 48.0078V80H281.688V48.0078H288.257ZM298.101 48.0078V53.1714H271.998V48.0078H298.101Z" fill="#151515"/>
</svg>
