<svg width="41" height="40" viewBox="0 0 41 40" fill="none" xmlns="http://www.w3.org/2000/svg">
<path d="M19.3088 8.30149C22.3626 8.30149 25.2401 9.71256 27.3488 11.9184V11.9249C27.3488 10.8656 28.0326 10.0643 28.9776 10.0643H29.2176C30.7088 10.0643 31.0076 11.5301 31.0076 11.9927L31.0138 28.4551C30.9101 29.534 32.0826 30.0916 32.7338 29.3984C35.2651 26.6845 38.2988 15.4324 31.1576 8.91778C24.4976 2.83703 15.5588 3.84158 10.8063 7.25524C5.75509 10.893 2.52634 18.9281 5.66259 26.4799C9.08759 34.7131 18.8788 37.1691 24.7063 34.7196C27.6563 33.4779 29.0163 37.629 25.9501 38.988C21.3288 41.0427 8.45009 40.8329 2.43509 29.9756C-1.62866 22.6415 -1.41366 9.73992 9.36884 3.05592C17.6101 -2.06067 28.4838 -0.643084 35.0388 6.49043C41.8888 13.9549 41.4926 27.9209 34.8051 33.3502C31.7763 35.8193 27.2788 33.418 27.3113 29.8206L27.2776 28.648C25.1688 30.8251 22.3626 32.102 19.3088 32.102C13.2676 32.102 7.94884 26.5568 7.94884 20.2663C7.94884 13.908 13.2676 8.3041 19.3088 8.3041V8.30149ZM26.9076 19.8115C26.6788 15.2031 23.3976 12.4279 19.4326 12.4279H19.2826C14.7126 12.4279 12.1738 16.1803 12.1738 20.4343C12.1738 25.2043 15.2401 28.2167 19.2638 28.2167C23.7551 28.2167 26.7038 24.7913 26.9188 20.7392L26.9076 19.8115Z" fill="#00AFB9"/>
</svg>
