<svg width="341" height="125" viewBox="0 0 341 125" fill="none" xmlns="http://www.w3.org/2000/svg">
<path d="M43.806 33.1976C51.5275 36.0932 58.6346 41.2905 64.0346 45.9962C65.2874 44.6745 66.9994 42.9345 69.0746 40.9698C63.1594 35.7514 55.1483 29.8542 46.2252 26.5109C32.5517 21.3886 21.3502 21.0484 13.9999 21.789C12.0799 24.364 10.3311 27.0758 8.74872 29.8998C13.3215 28.7604 26.3038 26.6363 43.806 33.1976Z" fill="white"/>
<path d="M109.572 74.1664C106.077 72.8577 102.618 70.9517 99.3429 68.8063C97.2517 70.2745 95.2549 71.8241 93.4213 73.359C97.6805 76.3394 102.349 79.0544 107.146 80.853C116.837 84.4828 125.867 85.5212 133.015 85.5212C136.768 85.5212 139.992 85.2348 142.53 84.8881C143.142 82.4498 143.63 79.961 143.998 77.4299C138.406 78.4293 124.784 79.8731 109.572 74.1664Z" fill="white"/>
<path d="M46.2266 106.484C64.3608 99.687 78.7687 82.3325 79.3142 81.6684C79.4598 81.4974 94.2629 64.5628 109.572 58.8235C124.787 53.12 138.411 54.5638 144 55.5616C143.632 53.0338 143.144 50.5466 142.531 48.1083C135.171 47.1089 121.941 46.5929 107.148 52.1385C90.1973 58.4898 74.7127 76.2009 74.0039 77.0213C73.8663 77.1905 60.1576 93.6678 43.8058 99.7961C26.3004 106.361 13.3069 104.228 8.74695 103.092C10.3293 105.915 12.0781 108.626 13.9981 111.201C15.7805 111.382 17.7693 111.507 19.9852 111.507C26.9116 111.507 35.8619 110.366 46.2266 106.484Z" fill="white"/>
<path d="M41.5199 93.4857C59.6525 86.6933 74.0636 69.3387 74.6076 68.673C74.7548 68.5037 89.5547 51.5625 104.863 45.8314C121.972 39.4166 137.085 42.0372 141.001 42.9031C140.122 40.2435 139.103 37.6473 137.945 35.1292C130.613 34.1168 117.316 33.5682 102.443 39.1448C85.4907 45.4944 70.0077 63.2071 69.2957 64.0259C69.1581 64.1968 55.4958 80.6529 39.0975 86.8007C19.8513 94.0163 6.04987 90.7267 2.9267 89.8006C3.81789 92.5351 4.85628 95.198 6.04187 97.7828C8.49304 98.1833 11.5858 98.5104 15.2786 98.5104C22.2049 98.5121 31.1568 97.3743 41.5199 93.4857Z" fill="white"/>
<path d="M36.8125 80.4934C54.9451 73.6929 69.3561 56.3383 69.9001 55.6742C70.0473 55.5049 84.8456 38.5702 100.153 32.831C115.906 26.9289 129.959 28.6852 135.146 29.6748C133.592 26.924 131.877 24.2806 130.002 21.7658C122.33 21.0854 110.618 21.3182 97.7335 26.146C80.78 32.5022 65.297 50.2148 64.5866 51.0352C64.449 51.2012 50.7419 67.6769 34.3885 73.8084C17.6686 80.0767 5.07195 78.4132 0 77.2624C0.366397 79.8244 0.855992 82.3474 1.47359 84.8182C3.90076 85.2089 6.95193 85.5214 10.5695 85.5214C17.4958 85.5181 26.4461 84.3771 36.8125 80.4934Z" fill="white"/>
<path d="M39.097 46.1933C44.9193 48.3745 50.3849 51.8675 55.044 55.4761C57.2152 53.4252 58.924 51.6396 60.0728 50.3814C54.8008 46.2243 48.4345 42.098 41.5194 39.5051C25.6139 33.5444 13.0844 34.0539 6.04131 35.2145C4.85572 37.796 3.81893 40.4606 2.92773 43.1951C6.0813 42.2592 19.8764 38.9842 39.097 46.1933Z" fill="white"/>
<path d="M104.863 87.1617C99.1688 85.031 93.5417 81.3378 88.7129 77.542C86.5466 79.5766 84.7946 81.3638 83.657 82.5732C89.1161 86.9436 95.6505 91.3075 102.441 93.8548C112.129 97.4846 121.162 98.5182 128.306 98.5182C132.119 98.5182 135.391 98.222 137.943 97.8736C139.103 95.3523 140.12 92.7545 140.999 90.0916C137.085 90.9543 121.969 93.5814 104.863 87.1617Z" fill="white"/>
<path d="M34.389 59.1937C37.8433 60.4877 41.1601 62.2489 44.2737 64.22C46.424 62.7551 48.44 61.2055 50.2912 59.6673C46.184 56.8775 41.6353 54.3106 36.8113 52.5022C21.0147 46.5822 8.5444 47.0478 1.47407 48.192C0.85648 50.6596 0.366885 53.1761 0.000488281 55.7364C5.08044 54.5791 17.6691 52.9205 34.389 59.1937Z" fill="white"/>
<path d="M100.154 100.163C92.6727 97.3612 85.3096 91.8645 79.7176 86.9716C78.4792 88.3226 76.788 90.074 74.7321 92.0321C80.8408 97.4214 89.0903 103.61 97.7366 106.852C107.421 110.477 116.448 111.516 123.596 111.516C125.967 111.512 128.098 111.392 130.012 111.223C131.883 108.711 133.595 106.073 135.146 103.325C129.968 104.329 115.984 106.097 100.154 100.163Z" fill="white"/>
<path d="M159.069 46.9243L165.441 20.0078H169L169.813 24.4902L163.024 52H159.201L159.069 46.9243ZM155.795 20.0078L161.068 46.9243L160.629 52H156.366L149.269 20.0078H155.795ZM175.417 46.8145L180.624 20.0078H187.15L180.075 52H175.812L175.417 46.8145ZM171 20.0078L177.416 47.0342L177.24 52H173.417L166.583 24.4683L167.462 20.0078H171ZM202.772 25.479L194.071 52H187.062L198.949 20.0078H203.41L202.772 25.479ZM210.001 52L201.278 25.479L200.575 20.0078H205.08L217.033 52H210.001ZM209.606 40.0908V45.2544H192.709V40.0908H209.606ZM229.733 45.3203L237.27 20.0078H244.608L233.468 52H228.634L229.733 45.3203ZM222.79 20.0078L230.304 45.3203L231.447 52H226.569L215.495 20.0078H222.79ZM269.064 46.8584V52H252.035V46.8584H269.064ZM254.188 20.0078V52H247.597V20.0078H254.188ZM266.845 33.0376V38.0474H252.035V33.0376H266.845ZM269.042 20.0078V25.1714H252.035V20.0078H269.042Z" fill="white"/>
<path d="M163.381 95.9595H155.163L155.119 91.4331H162.019C163.234 91.4331 164.23 91.2793 165.007 90.9717C165.783 90.6494 166.362 90.188 166.743 89.5874C167.138 88.9722 167.336 88.2251 167.336 87.3462C167.336 86.3501 167.146 85.5444 166.765 84.9292C166.398 84.314 165.82 83.8672 165.029 83.5889C164.252 83.3105 163.249 83.1714 162.019 83.1714H157.448V110H150.856V78.0078H162.019C163.879 78.0078 165.542 78.1836 167.006 78.5352C168.486 78.8867 169.738 79.4214 170.764 80.1392C171.789 80.8569 172.573 81.7651 173.115 82.8638C173.657 83.9478 173.928 85.2368 173.928 86.731C173.928 88.0493 173.627 89.2651 173.027 90.3784C172.441 91.4917 171.511 92.3999 170.236 93.103C168.977 93.8062 167.329 94.1943 165.292 94.2676L163.381 95.9595ZM163.095 110H153.361L155.932 104.858H163.095C164.252 104.858 165.197 104.675 165.93 104.309C166.662 103.928 167.204 103.416 167.556 102.771C167.907 102.126 168.083 101.387 168.083 100.552C168.083 99.6143 167.922 98.8013 167.6 98.1128C167.292 97.4243 166.794 96.897 166.105 96.5308C165.417 96.1499 164.509 95.9595 163.381 95.9595H157.031L157.075 91.4331H164.985L166.501 93.2129C168.449 93.1836 170.017 93.5278 171.203 94.2456C172.404 94.9487 173.276 95.8643 173.818 96.9922C174.375 98.1201 174.653 99.3286 174.653 100.618C174.653 102.668 174.206 104.397 173.312 105.803C172.419 107.195 171.108 108.242 169.379 108.945C167.666 109.648 165.571 110 163.095 110ZM197.263 78.0078H203.833V99.1455C203.833 101.606 203.305 103.679 202.25 105.364C201.21 107.048 199.768 108.315 197.922 109.165C196.091 110.015 193.981 110.439 191.594 110.439C189.206 110.439 187.082 110.015 185.222 109.165C183.376 108.315 181.926 107.048 180.871 105.364C179.831 103.679 179.311 101.606 179.311 99.1455V78.0078H185.903V99.1455C185.903 100.581 186.13 101.753 186.584 102.661C187.038 103.569 187.69 104.236 188.54 104.661C189.404 105.085 190.422 105.298 191.594 105.298C192.795 105.298 193.813 105.085 194.648 104.661C195.498 104.236 196.142 103.569 196.582 102.661C197.036 101.753 197.263 100.581 197.263 99.1455V78.0078ZM219.082 110H212.116L212.16 104.858H219.082C220.81 104.858 222.268 104.47 223.454 103.694C224.641 102.903 225.534 101.753 226.135 100.244C226.75 98.7354 227.058 96.9116 227.058 94.7729V93.2129C227.058 91.5723 226.882 90.1294 226.53 88.8843C226.193 87.6392 225.688 86.5918 225.014 85.7422C224.34 84.8926 223.513 84.2554 222.531 83.8306C221.55 83.3911 220.422 83.1714 219.147 83.1714H211.984V78.0078H219.147C221.286 78.0078 223.242 78.374 225.014 79.1064C226.801 79.8242 228.347 80.8569 229.65 82.2046C230.954 83.5522 231.958 85.1636 232.661 87.0386C233.378 88.8989 233.737 90.9717 233.737 93.2568V94.7729C233.737 97.0435 233.378 99.1162 232.661 100.991C231.958 102.866 230.954 104.478 229.65 105.825C228.361 107.158 226.816 108.191 225.014 108.923C223.227 109.641 221.25 110 219.082 110ZM215.852 78.0078V110H209.26V78.0078H215.852ZM263.884 93.2788V105.957C263.386 106.558 262.617 107.209 261.577 107.913C260.537 108.601 259.196 109.194 257.556 109.692C255.915 110.19 253.93 110.439 251.601 110.439C249.536 110.439 247.653 110.103 245.954 109.429C244.255 108.74 242.79 107.737 241.56 106.418C240.344 105.1 239.406 103.489 238.747 101.584C238.088 99.6655 237.758 97.4756 237.758 95.0146V93.0151C237.758 90.5542 238.073 88.3643 238.703 86.4453C239.348 84.5264 240.263 82.9077 241.45 81.5894C242.636 80.271 244.05 79.2676 245.69 78.5791C247.331 77.8906 249.155 77.5464 251.162 77.5464C253.945 77.5464 256.23 78.0005 258.017 78.9087C259.804 79.8022 261.167 81.0474 262.104 82.644C263.056 84.2261 263.642 86.0425 263.862 88.0933H257.468C257.307 87.0093 256.999 86.0645 256.545 85.2588C256.091 84.4531 255.439 83.8232 254.589 83.3691C253.754 82.915 252.67 82.688 251.337 82.688C250.239 82.688 249.257 82.915 248.393 83.3691C247.543 83.8086 246.826 84.4604 246.24 85.3247C245.654 86.189 245.207 87.2583 244.899 88.5327C244.592 89.8071 244.438 91.2866 244.438 92.9712V95.0146C244.438 96.6846 244.599 98.1641 244.921 99.4531C245.244 100.728 245.72 101.804 246.35 102.683C246.994 103.547 247.785 104.199 248.723 104.639C249.66 105.078 250.751 105.298 251.997 105.298C253.037 105.298 253.901 105.21 254.589 105.034C255.292 104.858 255.856 104.646 256.281 104.397C256.721 104.133 257.058 103.884 257.292 103.65V97.981H251.271V93.2788H263.884ZM290.668 104.858V110H273.64V104.858H290.668ZM275.793 78.0078V110H269.201V78.0078H275.793ZM288.449 91.0376V96.0474H273.64V91.0376H288.449ZM290.646 78.0078V83.1714H273.64V78.0078H290.646ZM309.257 78.0078V110H302.688V78.0078H309.257ZM319.101 78.0078V83.1714H292.998V78.0078H319.101Z" fill="white"/>
</svg>
