<svg width="91" height="90" viewBox="0 0 91 90" fill="none" xmlns="http://www.w3.org/2000/svg">
<g clip-path="url(#clip0_128_255)">
<path d="M84.875 78.75C84.875 78.75 90.5 78.75 90.5 73.125C90.5 67.5 84.875 50.625 62.375 50.625C39.875 50.625 34.25 67.5 34.25 73.125C34.25 78.75 39.875 78.75 39.875 78.75H84.875ZM39.9987 73.125C39.9572 73.1193 39.9159 73.1118 39.875 73.1025C39.8806 71.6175 40.8144 67.3088 44.15 63.4275C47.255 59.7881 52.7113 56.25 62.375 56.25C72.0331 56.25 77.4894 59.7938 80.6 63.4275C83.9356 67.3088 84.8637 71.6231 84.875 73.1025L84.83 73.1138C84.8038 73.1182 84.7776 73.1219 84.7513 73.125H39.9987ZM62.375 39.375C65.3587 39.375 68.2202 38.1897 70.3299 36.08C72.4397 33.9702 73.625 31.1087 73.625 28.125C73.625 25.1413 72.4397 22.2798 70.3299 20.17C68.2202 18.0603 65.3587 16.875 62.375 16.875C59.3913 16.875 56.5298 18.0603 54.4201 20.17C52.3103 22.2798 51.125 25.1413 51.125 28.125C51.125 31.1087 52.3103 33.9702 54.4201 36.08C56.5298 38.1897 59.3913 39.375 62.375 39.375ZM79.25 28.125C79.25 30.3411 78.8135 32.5354 77.9655 34.5828C77.1174 36.6302 75.8744 38.4904 74.3074 40.0574C72.7404 41.6244 70.8801 42.8674 68.8328 43.7155C66.7854 44.5635 64.5911 45 62.375 45C60.1589 45 57.9646 44.5635 55.9172 43.7155C53.8698 42.8674 52.0096 41.6244 50.4426 40.0574C48.8756 38.4904 47.6326 36.6302 46.7845 34.5828C45.9365 32.5354 45.5 30.3411 45.5 28.125C45.5 23.6495 47.2779 19.3573 50.4426 16.1926C53.6072 13.0279 57.8995 11.25 62.375 11.25C66.8505 11.25 71.1428 13.0279 74.3074 16.1926C77.4721 19.3573 79.25 23.6495 79.25 28.125ZM39.515 52.2C37.2649 51.4915 34.9454 51.0257 32.5962 50.8106C31.2762 50.6851 29.951 50.6232 28.625 50.625C6.125 50.625 0.5 67.5 0.5 73.125C0.5 76.8769 2.37313 78.75 6.125 78.75H29.84C29.0061 76.994 28.5903 75.0687 28.625 73.125C28.625 67.4437 30.7456 61.6387 34.7563 56.79C36.1231 55.1362 37.715 53.5894 39.515 52.2ZM28.175 56.25C24.8459 61.2522 23.0475 67.1165 23 73.125H6.125C6.125 71.6625 7.0475 67.3312 10.4 63.4275C13.4656 59.85 18.7925 56.3625 28.175 56.2556V56.25ZM8.9375 30.9375C8.9375 26.462 10.7154 22.1698 13.8801 19.0051C17.0448 15.8404 21.337 14.0625 25.8125 14.0625C30.288 14.0625 34.5802 15.8404 37.7449 19.0051C40.9096 22.1698 42.6875 26.462 42.6875 30.9375C42.6875 35.413 40.9096 39.7052 37.7449 42.8699C34.5802 46.0346 30.288 47.8125 25.8125 47.8125C21.337 47.8125 17.0448 46.0346 13.8801 42.8699C10.7154 39.7052 8.9375 35.413 8.9375 30.9375ZM25.8125 19.6875C22.8288 19.6875 19.9673 20.8728 17.8575 22.9825C15.7478 25.0923 14.5625 27.9538 14.5625 30.9375C14.5625 33.9212 15.7478 36.7827 17.8575 38.8925C19.9673 41.0022 22.8288 42.1875 25.8125 42.1875C28.7962 42.1875 31.6577 41.0022 33.7675 38.8925C35.8772 36.7827 37.0625 33.9212 37.0625 30.9375C37.0625 27.9538 35.8772 25.0923 33.7675 22.9825C31.6577 20.8728 28.7962 19.6875 25.8125 19.6875Z" fill="black"/>
</g>
<defs>
<clipPath id="clip0_128_255">
<rect width="90" height="90" fill="white" transform="translate(0.5)"/>
</clipPath>
</defs>
</svg>
