<svg width="40" height="40" viewBox="0 0 40 40" fill="none" xmlns="http://www.w3.org/2000/svg">
<path d="M29.137 39.9999C29.6681 40.003 30.1945 39.9002 30.6855 39.6977C31.1765 39.4951 31.6222 39.1968 31.9967 38.8201L37.4161 33.4006C37.7885 33.026 37.9976 32.5191 37.9976 31.9908C37.9976 31.4625 37.7885 30.9556 37.4161 30.5809L29.4169 22.5818C29.0422 22.2093 28.5354 22.0003 28.0071 22.0003C27.4788 22.0003 26.9719 22.2093 26.5972 22.5818L23.3976 25.7614C21.1823 25.1708 19.1307 24.0834 17.3982 22.5818C15.9006 20.8466 14.8138 18.7959 14.2186 16.5824L17.3982 13.3828C17.7707 13.0081 17.9797 12.5012 17.9797 11.9729C17.9797 11.4446 17.7707 10.9378 17.3982 10.5631L9.39907 2.56392C9.02438 2.19145 8.51753 1.98239 7.98922 1.98239C7.4609 1.98239 6.95405 2.19145 6.57937 2.56392L1.17994 8.00334C0.803245 8.37778 0.504903 8.8235 0.302327 9.31449C0.0997513 9.80548 -0.00300119 10.3319 6.67263e-05 10.863C0.181493 18.5468 3.25187 25.88 8.59915 31.4008C14.12 36.7481 21.4532 39.8185 29.137 39.9999ZM7.99922 6.82346L13.1787 12.0029L10.5989 14.5826C10.3546 14.8115 10.1716 15.0981 10.0668 15.416C9.962 15.734 9.93868 16.0731 9.999 16.4024C10.7465 19.7428 12.329 22.8391 14.5985 25.4015C17.159 27.6739 20.256 29.2569 23.5976 30.001C23.9219 30.0688 24.258 30.055 24.5756 29.9607C24.8932 29.8665 25.1825 29.6948 25.4174 29.4611L27.9971 26.8213L33.1765 32.0008L29.177 36.0004C22.5451 35.8296 16.2173 33.1829 11.4388 28.5812C6.82516 23.8007 4.17084 17.4645 3.99964 10.823L7.99922 6.82346ZM35.9962 18.0023H39.9958C40.0477 15.6245 39.6176 13.2609 38.7314 11.0538C37.8453 8.84676 36.5215 6.84195 34.8398 5.16023C33.158 3.47851 31.1532 2.15469 28.9462 1.26856C26.7391 0.382429 24.3755 -0.0476683 21.9977 0.00418882V4.00376C23.8533 3.93957 25.7023 4.25776 27.4297 4.93853C29.1572 5.61931 30.7261 6.64812 32.039 7.96102C33.3519 9.27392 34.3807 10.8428 35.0615 12.5703C35.7422 14.2977 36.0604 16.1467 35.9962 18.0023Z" fill="#00AFB9"/>
</svg>
