<svg width="158" height="30" viewBox="0 0 158 30" fill="none" xmlns="http://www.w3.org/2000/svg">
<rect width="30" height="30" fill="#00B67A"/>
<path d="M15 1.5L10.5 10.5L1.5 11.625L7.695 18.555L6 28.5L15 24L24 28.5L22.32 18.555L28.5 11.625L19.5 10.5L15 1.5ZM15 4.86L18.51 11.895L25.485 12.765L20.715 18.105L22.02 25.83L15 22.32L7.98 25.83L9.285 18.105L4.515 12.765L11.49 11.895L15 4.86Z" fill="white"/>
<rect width="30" height="30" transform="translate(32)" fill="#00B67A"/>
<path d="M47 1.5L42.5 10.5L33.5 11.625L39.695 18.555L38 28.5L47 24L56 28.5L54.32 18.555L60.5 11.625L51.5 10.5L47 1.5ZM47 4.86L50.51 11.895L57.485 12.765L52.715 18.105L54.02 25.83L47 22.32L39.98 25.83L41.285 18.105L36.515 12.765L43.49 11.895L47 4.86Z" fill="white"/>
<rect width="30" height="30" transform="translate(64)" fill="#00B67A"/>
<path d="M79 1.5L74.5 10.5L65.5 11.625L71.695 18.555L70 28.5L79 24L88 28.5L86.32 18.555L92.5 11.625L83.5 10.5L79 1.5ZM79 4.86L82.51 11.895L89.485 12.765L84.715 18.105L86.02 25.83L79 22.32L71.98 25.83L73.285 18.105L68.515 12.765L75.49 11.895L79 4.86Z" fill="white"/>
<rect width="30" height="30" transform="translate(96)" fill="#00B67A"/>
<path d="M111 1.5L106.5 10.5L97.5 11.625L103.695 18.555L102 28.5L111 24L120 28.5L118.32 18.555L124.5 11.625L115.5 10.5L111 1.5ZM111 4.86L114.51 11.895L121.485 12.765L116.715 18.105L118.02 25.83L111 22.32L103.98 25.83L105.285 18.105L100.515 12.765L107.49 11.895L111 4.86Z" fill="white"/>
<rect width="30" height="30" transform="translate(128)" fill="url(#paint0_linear_131_741)"/>
<path d="M143 1.5L138.5 10.5L129.5 11.625L135.695 18.555L134 28.5L143 24L152 28.5L150.32 18.555L156.5 11.625L147.5 10.5L143 1.5ZM143 4.86L146.51 11.895L153.485 12.765L148.715 18.105L150.02 25.83L143 22.32L135.98 25.83L137.285 18.105L132.515 12.765L139.49 11.895L143 4.86Z" fill="white"/>
<defs>
<linearGradient id="paint0_linear_131_741" x1="-2.15368e-09" y1="15" x2="30" y2="15" gradientUnits="userSpaceOnUse">
<stop offset="0.494864" stop-color="#00B67A"/>
<stop offset="0.567782" stop-color="#828D8A" stop-opacity="0.69"/>
</linearGradient>
</defs>
</svg>
