<svg width="90" height="90" viewBox="0 0 90 90" fill="none" xmlns="http://www.w3.org/2000/svg">
<g clip-path="url(#clip0_297_88)">
<path d="M70 75H40V55H35V75H20V55H15V75C15 76.3261 15.5268 77.5979 16.4645 78.5355C17.4021 79.4732 18.6739 80 20 80H70C71.3261 80 72.5979 79.4732 73.5355 78.5355C74.4732 77.5979 75 76.3261 75 75V55H70V75Z" fill="black"/>
<path d="M84.475 33.175L74.275 12.775C73.8611 11.942 73.223 11.2409 72.4324 10.7507C71.6419 10.2605 70.7303 10.0005 69.8 10H20.2C19.2698 10.0005 18.3582 10.2605 17.5677 10.7507C16.7771 11.2409 16.139 11.942 15.725 12.775L5.52504 33.175C5.17678 33.8737 4.99698 34.6443 5.00004 35.425V43.125C4.99776 44.2933 5.40463 45.4254 6.15004 46.325C7.25169 47.5878 8.61229 48.5987 10.1394 49.2889C11.6665 49.9791 13.3242 50.3325 15 50.325C17.7345 50.3293 20.3855 49.3837 22.5 47.65C24.6146 49.3847 27.265 50.3328 30 50.3328C32.7351 50.3328 35.3855 49.3847 37.5 47.65C39.6146 49.3847 42.265 50.3328 45 50.3328C47.7351 50.3328 50.3855 49.3847 52.5 47.65C54.6146 49.3847 57.265 50.3328 60 50.3328C62.7351 50.3328 65.3855 49.3847 67.5 47.65C69.8604 49.5881 72.8803 50.5355 75.9248 50.293C78.9692 50.0506 81.8011 48.6372 83.825 46.35C84.5795 45.4539 84.9953 44.3214 85 43.15V35.425C85.0031 34.6443 84.8233 33.8737 84.475 33.175ZM37.5 36V39.8L35.45 42.5C34.8207 43.3577 33.9983 44.0552 33.0493 44.536C32.1003 45.0168 31.0514 45.2673 29.9875 45.2673C28.9237 45.2673 27.8748 45.0168 26.9258 44.536C25.9768 44.0552 25.1543 43.3577 24.525 42.5L22.5 39.7V36L28.975 15H40L37.5 36ZM67.5 39.7L65.475 42.5C64.8457 43.3577 64.0233 44.0552 63.0743 44.536C62.1253 45.0168 61.0764 45.2673 60.0125 45.2673C58.9487 45.2673 57.8998 45.0168 56.9508 44.536C56.0018 44.0552 55.1793 43.3577 54.55 42.5L52.5 39.7V36L50 15H61.125L67.5 36V39.7Z" fill="black"/>
</g>
<defs>
<clipPath id="clip0_297_88">
<rect width="90" height="90" fill="white"/>
</clipPath>
</defs>
</svg>
